<?xml version="1.0" encoding="UTF-8" standalone="no"?>
<!-- Created with Inkscape (http://www.inkscape.org/) -->

<svg
   xmlns:dc="http://purl.org/dc/elements/1.1/"
   xmlns:cc="http://creativecommons.org/ns#"
   xmlns:rdf="http://www.w3.org/1999/02/22-rdf-syntax-ns#"
   xmlns:svg="http://www.w3.org/2000/svg"
   xmlns="http://www.w3.org/2000/svg"
   xmlns:sodipodi="http://sodipodi.sourceforge.net/DTD/sodipodi-0.dtd"
   xmlns:inkscape="http://www.inkscape.org/namespaces/inkscape"
   width="100mm"
   height="100mm"
   viewBox="0 0 100 100"
   version="1.1"
   id="svg4871"
   inkscape:version="0.92.2 5c3e80d, 2017-08-06"
   sodipodi:docname="icon.svg"
   inkscape:export-filename="/mnt/Documents/_En cours/Thomas/Projets/001 - Personal Knowledge Base/Travail/Software/PKbSuite/src/images/pkbsuite.png"
   inkscape:export-xdpi="170"
   inkscape:export-ydpi="170">
  <defs
     id="defs4865">
    <clipPath
       id="clipPath184"
       clipPathUnits="userSpaceOnUse">
      <path
         inkscape:connector-curvature="0"
         id="path182"
         d="m 1766.01,2435.84 c -60.26,0 -109.29,-49.03 -109.29,-109.29 0,-60.26 49.03,-109.29 109.29,-109.29 60.26,0 109.29,49.03 109.29,109.29 0,60.26 -49.03,109.29 -109.29,109.29 z m 0,-272.9 c -90.21,0 -163.61,73.4 -163.61,163.61 0,90.22 73.4,163.61 163.61,163.61 90.21,0 163.6,-73.39 163.6,-163.61 0,-90.21 -73.39,-163.61 -163.6,-163.61 z" />
    </clipPath>
  </defs>
  <sodipodi:namedview
     id="base"
     pagecolor="#ffffff"
     bordercolor="#666666"
     borderopacity="1.0"
     inkscape:pageopacity="0.0"
     inkscape:pageshadow="2"
     inkscape:zoom="0.72960859"
     inkscape:cx="-201.4156"
     inkscape:cy="561.25984"
     inkscape:document-units="mm"
     inkscape:current-layer="layer1"
     showgrid="false"
     inkscape:window-width="1920"
     inkscape:window-height="1025"
     inkscape:window-x="0"
     inkscape:window-y="0"
     inkscape:window-maximized="1" />
  <metadata
     id="metadata4868">
    <rdf:RDF>
      <cc:Work
         rdf:about="">
        <dc:format>image/svg+xml</dc:format>
        <dc:type
           rdf:resource="http://purl.org/dc/dcmitype/StillImage" />
        <dc:title></dc:title>
      </cc:Work>
    </rdf:RDF>
  </metadata>
  <g
     inkscape:label="Calque 1"
     inkscape:groupmode="layer"
     id="layer1"
     transform="translate(0,-197)">
    <g
       id="g5447"
       transform="matrix(1,0,0,0.99999605,-55.761478,23.992508)"
       inkscape:export-filename="/mnt/Documents/_En cours/Thomas/Projets/001 - Personal Knowledge Base/Travail/Software/PKbSuite/src/images/icons/512x512/apps/PKbSuite.png"
       inkscape:export-xdpi="130.05"
       inkscape:export-ydpi="130.05">
      <path
         d="m 125.21778,201.51988 c 1.47779,-1.33 2.58614,-3.325 1.84725,-5.32 -0.3695,-1.995 -2.21669,-3.65741 -4.43338,-3.99001 -1.10828,-0.333 -1.84726,-0.333 -2.9556,0 -1.10828,0.333 -1.84725,0.665 -2.58614,1.33 -1.4778,1.33011 -2.58614,3.32511 -1.84724,5.32011 0.3695,1.995 2.21669,3.65751 4.43338,3.98991 1.10841,0.333 1.84725,0.333 2.9556,0 0.7389,-0.333 1.84723,-0.66501 2.58613,-1.33001 z"
         id="path7597"
         inkscape:connector-curvature="0"
         style="fill:none;stroke-width:3.50487471" />
      <path
         d="m 131.86786,209.49979 c -0.7389,-0.333 -1.84724,-0.333 -2.58614,0 -0.7389,0.333 -1.84725,0.665 -2.21669,0.998 -1.4778,0.99801 -2.21669,2.99241 -1.4778,4.65501 0.3695,1.6624 1.84724,2.9924 3.69449,3.325 0.73891,0.333 1.84724,0.333 2.58614,0 0.739,-0.333 1.84725,-0.665 2.21669,-0.998 1.47779,-0.998 2.21669,-2.9925 1.47779,-4.655 -0.3695,-1.6624 -1.84723,-2.99251 -3.69448,-3.32511 z"
         id="path7599"
         inkscape:connector-curvature="0"
         style="fill:none;stroke-width:3.50487471" />
      <path
         d="m 109.33149,180.57246 c -0.7389,0 -1.10828,0 -1.84725,0 -5.54173,0 -11.083464,0.998 -15.88629,2.9924 -7.388978,2.99261 -15.886308,10.30761 -12.930715,18.28752 1.477792,3.32511 4.433385,5.98501 8.12787,7.64741 5.541736,2.32761 20.319695,0 22.166925,6.65011 0.7389,3.32501 2.58615,5.98501 6.28064,6.98251 5.54172,1.6625 6.65008,6.64991 11.82236,7.98001 2.58613,0.665 5.54173,0 7.75842,-0.998 4.80284,-2.3275 8.86677,-6.65001 10.71401,-11.30492 2.9556,-7.6475 2.2167,-17.29002 -2.95558,-24.27252 -7.38898,-9.30992 -20.31969,-13.96492 -33.25039,-13.96492 z m -1.4778,23.27493 -1.84724,-0.998 c -0.7389,0.998 -1.84725,1.6624 -3.32504,1.995 l 0.3695,1.995 -3.32503,0.665 -0.3695,-1.995 c -1.477802,0 -2.586144,0 -4.063935,-0.665 l -1.108282,1.6624 -2.955593,-1.6624 1.108281,-1.6625 c -1.108281,-0.665 -1.847242,-1.66261 -2.216692,-2.99251 l -2.216693,0.333 -0.739001,-2.66 2.216693,-0.333 c 0,-1.33 0,-2.3275 0.739001,-3.65761 l -1.847243,-0.998 1.847243,-2.6601 1.847242,0.998 c 0.738901,-0.998 1.847252,-1.6625 3.325044,-1.995 l -0.738901,-1.995 3.325044,-0.665 0.3695,1.995 c 1.477792,0 2.586132,0 4.063942,0.665 l 1.10827,-1.6625 2.9556,1.6625 -1.10841,1.6625 c 1.10841,0.665 1.84725,1.6625 2.21669,2.9924 l 2.21669,-0.665 0.7389,2.99261 -1.84724,0.333 c 0,1.3299 0,2.3274 -0.739,3.6574 l 1.84725,0.998 z m 9.60567,1.3301 -1.10842,1.6624 -2.95559,-1.6624 1.10828,-1.6627 c -1.10828,-0.665 -1.84725,-1.66241 -2.2167,-2.99231 l -2.21669,0.333 -0.739,-2.66 2.21669,-0.333 c 0,-1.3299 0,-2.3275 0.739,-3.6575 l -1.84724,-0.99801 1.84724,-2.66 1.84725,0.998 c 0.739,-0.998 1.84725,-1.6625 3.32504,-1.995 l -0.739,-1.995 3.32504,-0.665 0.3695,1.995 c 1.4778,0 2.58614,0 4.06395,0.665 l 1.10841,-1.6625 2.95559,1.6625 -1.10827,1.6626 c 1.10827,0.665 1.84724,1.6625 2.21669,2.99241 l 2.2167,-0.33301 0.7389,2.66001 -2.21669,0.333 c 0,1.3299 0,2.3275 -0.73891,3.6575 l 1.84725,0.998 -1.84725,2.66001 -1.47779,-0.998 c -0.7389,0.998 -1.84725,1.6624 -3.32504,1.995 l 0.3695,1.995 -3.32504,0.665 -0.3695,-1.995 c -1.47781,0 -2.58616,0 -4.06395,-0.665 z m 21.05858,8.64491 c 0,0.998 0,1.995 -0.73891,2.9925 l 1.4778,0.998 -1.10829,1.99501 -1.47779,-0.99801 c -0.7389,0.66501 -1.84723,1.32991 -2.95557,1.66241 l 0.3695,1.6625 -2.95559,0.998 -0.3695,-1.6627 c -1.10842,0 -2.2167,0 -3.32504,-0.665 l -1.10841,1.3299 -2.21669,-1.3299 1.10827,-1.3301 c -0.7389,-0.66501 -1.47779,-1.66251 -1.84725,-2.66001 l -1.84723,0.333 -1.10842,-2.3274 1.84724,-0.333 c 0,-0.998 0,-1.995 0.7389,-2.9926 l -1.47779,-0.99801 1.47779,-2.3274 1.47779,0.998 c 0.7389,-0.665 1.84725,-1.3301 2.95559,-1.6627 l -0.3695,-1.6624 2.95559,-0.665 0.3695,1.6625 c 1.10827,0 2.21669,0 3.32503,0.665 l 1.10828,-1.3299 2.58613,1.3299 -1.10841,1.3301 c 0.7389,0.665 1.47779,1.6625 1.84724,2.66001 l 1.84725,-0.333 0.7389,2.6598 z"
         id="path7601"
         inkscape:connector-curvature="0"
         style="fill:none;stroke-width:3.50487471" />
      <path
         d="m 100.46472,191.54487 c -1.10828,-0.333 -1.847251,-0.333 -2.955593,0 -1.108281,0.333 -1.847252,0.665 -2.586143,1.3301 -1.477802,1.32991 -2.586143,3.32491 -1.847242,5.31991 0.3695,1.995 2.216693,3.6575 4.433385,3.99 1.108272,0.33301 1.847243,0.33301 2.955593,0 1.10841,-0.333 1.84723,-0.665 2.58613,-1.3299 1.4778,-1.3301 2.58615,-3.3251 1.84726,-5.3201 -0.3695,-1.99501 -2.2167,-3.32501 -4.43339,-3.99001 z"
         id="path7603"
         inkscape:connector-curvature="0"
         style="fill:none;stroke-width:3.50487471" />
      <ellipse
         ry="34.658833"
         rx="38.510338"
         cy="211.72044"
         cx="111.27264"
         id="path8175"
         style="fill:#ff980f;fill-opacity:1;stroke:none;stroke-width:1.32467711;stroke-miterlimit:4;stroke-dasharray:none;stroke-opacity:1" />
      <path
         d="m 128.54282,175.58495 c -4.43338,-1.33 -9.23622,-1.995 -13.6696,-2.3274 -7.38898,-0.665 -14.4085,0 -21.428038,1.995 -10.714002,3.32491 -18.841882,9.30991 -23.644717,18.61992 -2.955594,5.32001 -4.433386,10.64002 -5.541727,15.95992 -0.3695,1.99501 0,3.65751 1.477792,5.32011 0.3695,0.333 0.3695,0.665 0,0.998 -0.369501,0.333 -0.739001,0.998 -1.108282,1.33 -2.586133,3.99001 -5.541726,7.98001 -8.127869,11.63762 -0.369501,0.665 -0.738901,1.3299 -0.738901,1.6624 0,0.333 0,0.333 0,0.665 v 0 c 0,0.665 0.3695,0.998 1.108281,1.6626 0.738901,0.332 1.108272,0.665 1.847242,0.665 0.738901,0.333 1.847253,0.665 2.586144,0.998 1.108411,0.66501 1.477801,1.66241 1.108411,2.65991 0,0.665 -0.369501,0.998 -0.738901,1.6626 -0.3695,1.3299 -0.3695,1.9949 1.108271,2.6599 0.739001,0.333 1.108282,0.333 1.847232,0.665 -0.7389,0.333 -1.477781,0.99801 -1.847232,1.33001 -0.738901,0.665 -0.738901,0.998 0,1.6625 0.369501,0.333 1.108282,0.998 1.477792,1.3301 1.477792,0.998 1.477792,1.6625 0.738901,2.9924 -0.369501,1.3301 -1.108411,2.66011 -1.477802,3.99001 -0.738901,3.3251 1.477802,5.985 5.172286,6.98251 1.108282,0.333 1.847252,0.333 2.955594,0.333 2.216692,0 4.433385,-0.333 6.650078,-0.333 1.847242,-0.333 3.694484,-0.333 5.541736,-0.66501 1.847232,0 2.955584,0.66501 3.325034,2.32761 0.369501,0.665 0.369501,1.6624 0.369501,2.3274 0.3695,2.66 0.7389,4.98751 1.108281,7.64751 0,0.333 0.3695,0.665 0.738901,0.665 16.994642,0 34.358742,0 51.353382,0 0.7389,0 1.10841,-0.333 0.7389,-0.998 0,-0.333 -0.3695,-0.665 -0.3695,-0.665 -0.3695,-0.998 -1.10842,-1.6625 -1.47781,-2.65991 -2.58614,-5.6524 -3.32504,-11.63741 -2.58614,-17.62242 0.3695,-1.6626 0.3695,-3.3251 0.7389,-4.9876 0.73901,-3.32491 2.58616,-5.98501 4.80285,-8.64501 1.84723,-1.995 3.69448,-3.99001 5.54174,-6.31731 6.65007,-8.64511 9.23621,-18.28752 6.65007,-28.59503 -2.95559,-13.63242 -11.82236,-22.27753 -26.23087,-26.93254 z M 145.53746,218.81 c -1.84724,4.65481 -5.91117,8.97732 -10.71401,11.30492 -2.21669,1.3299 -5.17229,1.6624 -7.75842,0.998 -5.17228,-1.3301 -6.28064,-6.31761 -11.82236,-7.98001 -3.69449,-0.998 -5.54174,-3.6577 -6.28064,-6.98261 -1.84723,-6.98231 -16.625189,-4.3224 -22.166925,-6.65001 -3.694485,-1.6624 -6.650078,-4.3224 -8.12787,-7.64741 -2.955593,-7.98011 5.541737,-14.96241 12.930715,-18.28752 5.172276,-1.995 10.34456,-2.9924 15.88629,-2.9924 0.739,0 1.10828,0 1.84725,0 12.9307,0 25.86141,4.655 33.25039,13.96492 5.17228,6.9824 5.91118,16.62512 2.95558,24.27242 z"
         id="path7605"
         inkscape:connector-curvature="0"
         style="fill:#187dca;fill-opacity:1;stroke-width:3.50487471" />
      <path
         d="m 108.59259,196.53248 2.21669,-0.333 -1.10828,-2.99251 -2.21669,0.333 c -0.3695,-0.998 -1.47779,-1.995 -2.21669,-2.9924 l 1.10842,-1.6624 -2.9556,-1.6626 -1.10828,1.6626 c -1.10841,-0.333 -2.58613,-0.665 -4.063922,-0.665 l -0.3695,-1.6625 -3.325044,0.665 0.3695,1.995 c -1.108271,0.333 -2.216692,1.33 -3.325034,1.995 l -1.847232,-0.998 -1.847252,2.6601 1.847252,0.998 c -0.3695,0.99801 -0.738901,2.32761 -0.738901,3.65761 l -1.847232,0.333 0.738901,2.9925 2.216693,-0.333 c 0.739,0.998 1.477791,1.99491 2.216692,2.66001 l -1.108411,1.6625 2.955593,1.6624 1.108282,-1.6624 c 1.108411,0.333 2.586133,0.665 4.063935,0.665 l 0.3695,1.995 3.32504,-0.665 -0.3695,-1.995 c 1.10827,-0.333 2.2167,-1.3301 3.32504,-1.995 l 1.84723,0.998 1.84725,-2.65991 -1.84725,-0.998 c 0.3695,-1.3299 0.739,-2.3275 0.739,-3.6575 z m -5.54174,4.655 c -0.7389,0.665 -1.84724,0.998 -2.58613,1.33001 -0.7389,0.333 -2.216692,0.333 -2.955593,0 -2.216692,-0.66501 -3.694484,-1.99501 -4.433385,-3.99001 -0.3695,-1.995 0.3695,-3.99 1.847242,-5.31991 0.739001,-0.665 1.847242,-0.998 2.586143,-1.3301 1.108272,-0.333 2.216693,-0.333 2.955593,0 2.21669,0.665 3.69448,1.995 4.43339,3.99001 0.3695,1.9949 -0.3695,3.9899 -1.84726,5.32 z"
         id="path7607"
         inkscape:connector-curvature="0"
         style="fill:#187dca;fill-opacity:1;stroke-width:3.50487471" />
      <path
         d="m 121.89275,207.83739 3.32503,-0.665 -0.3695,-1.995 c 1.10842,-0.333 2.21669,-1.3299 3.32504,-1.9949 l 1.84724,0.998 1.84724,-2.66001 -1.84724,-0.998 c 0.3695,-0.998 0.7389,-2.3275 0.7389,-3.6575 l 1.84725,-0.333 -0.739,-2.99251 -2.2167,0.333 c -0.3695,-0.998 -1.4778,-1.995 -2.21669,-2.9925 l 1.10828,-1.6624 -2.95559,-1.6626 -1.10842,1.6626 c -1.10827,-0.333 -2.58613,-0.665 -4.06393,-0.665 l -0.3695,-1.995 -3.32504,0.998 0.3695,1.995 c -1.10828,0.333 -2.21669,1.33 -3.32504,1.9949 l -1.84726,-0.998 -1.47778,2.6601 1.84723,0.99801 c -0.3695,0.998 -0.7389,2.3275 -0.7389,3.6575 l -2.21669,0.333 0.7389,2.9924 2.21669,-0.333 c 0.3695,0.998 1.47781,1.99501 2.2167,2.99251 l -1.10828,1.6624 2.95559,1.6627 1.10842,-1.6627 c 1.10827,0.333 2.58613,0.665 4.06395,0.665 z m -2.58615,-5.3199 c -2.21669,-0.66501 -3.69449,-1.99501 -4.43338,-3.99001 -0.3695,-1.995 0.3695,-3.99 2.21669,-5.31991 0.739,-0.665 1.84724,-0.998 2.58614,-1.3301 1.10841,-0.333 2.2167,-0.333 2.9556,0 2.21669,0.665 3.69448,1.995 4.43338,3.99001 0.3695,1.9949 -0.3695,3.9899 -1.84725,5.32 -0.7389,0.665 -1.84724,0.998 -2.58613,1.33001 -1.10828,0.333 -2.2167,0.333 -3.32505,0 z"
         id="path7609"
         inkscape:connector-curvature="0"
         style="fill:#187dca;fill-opacity:1;stroke-width:3.50487471" />
      <path
         d="m 138.14849,211.1625 c -0.3695,-0.99801 -1.10828,-1.99501 -1.84725,-2.66011 l 1.10842,-1.3299 -2.58614,-1.3301 -1.10827,1.3301 c -1.10828,-0.333 -2.21669,-0.665 -3.32504,-0.665 l -0.3695,-1.6625 -2.95559,0.665 0.3695,1.6626 c -1.10842,0.332 -2.21669,0.998 -2.9556,1.6624 l -1.47778,-0.998 -1.47779,2.3275 1.47779,0.99801 c -0.3695,0.998 -0.739,1.995 -0.739,2.9924 l -1.84724,0.665 0.7389,2.6599 1.84725,-0.333 c 0.3695,0.998 1.10841,1.995 1.84724,2.66001 l -0.7389,0.998 2.58613,1.3299 1.10828,-1.3299 c 1.10827,0.333 2.2167,0.665 3.32504,0.665 l 0.3695,1.6625 2.95558,-0.665 -0.3695,-1.6624 c 1.10827,-0.333 2.21669,-0.998 2.95559,-1.66251 l 1.4778,0.99801 1.47779,-2.32751 -1.47779,-0.998 c 0.3695,-0.998 0.7389,-1.995 0.7389,-2.9926 l 1.84724,-0.333 -0.739,-2.6599 z m -4.06394,6.3174 c -0.7389,0.665 -1.47779,0.998 -2.21669,0.998 -0.7389,0.333 -1.84724,0 -2.58614,0 -1.84725,-0.333 -3.32504,-1.6626 -3.69449,-3.325 -0.3695,-1.6626 0.3695,-3.325 1.4778,-4.65501 0.7389,-0.665 1.47779,-0.998 2.21669,-0.998 0.73891,-0.333 1.84724,0 2.58614,0 1.84725,0.333 3.32504,1.66271 3.69448,3.32511 0.3695,1.995 -0.3695,3.6575 -1.47779,4.655 z"
         id="path7611"
         inkscape:connector-curvature="0"
         style="fill:#187dca;fill-opacity:1;stroke-width:3.50487471" />
    </g>
  </g>
</svg>
